# xmcd CD database file
#
# Track frame offsets:
#	150
#	24760
#	45270
#	65632
#	86130
#	108164
#	127734
#	145926
#	160770
#	178843
#	199437
#	221883
#	233013
#	249285
#	269768
#	293415
#
# Disc length: 4262 seconds
#
# Revision: 0
# Processed by: cddbd v1.5.2PL0 Copyright (c) Steve Scherf et al.
# Submitted via: CDex 1.81
#
DISCID=e010a410
DTITLE=The Delta Jazz Band - The Delta Jazz Band with Colin Bowden
DYEAR=2001
DGENRE=Jazz
TTITLE0=Algiers Strut
TTITLE1=Song of the Wanderer
TTITLE2=Why Should I Cry Over You
TTITLE3=This Love of Mine
TTITLE4=Give It Up
TTITLE5=Amor de Loca Juventud
TTITLE6=River Stay Away from My Door
TTITLE7=Snowy Mornin' Blues
TTITLE8=Salutation March
TTITLE9=The Chant of Tuxedos
TTITLE10=Blues for Sonny
TTITLE11=If You Knew
TTITLE12=Maple Leaf Rag
TTITLE13=Original Dixieland One-Step
TTITLE14=Someday You'll Want Me to Want You
TTITLE15=Dinah
EXTD=YEAR: 2001
EXTT0=
EXTT1=
EXTT2=
EXTT3=
EXTT4=
EXTT5=
EXTT6=
EXTT7=
EXTT8=
EXTT9=
EXTT10=
EXTT11=
EXTT12=
EXTT13=
EXTT14=
EXTT15=
PLAYORDER=
